<svg width="20" height="24" viewBox="0 0 20 24" fill="none" xmlns="http://www.w3.org/2000/svg">
<path d="M9.9909 5.50468C9.06063 5.50468 8.15101 5.63392 7.27235 5.88864V3.28374C7.27235 1.4731 5.75502 0 3.88933 0C2.02364 0 0.506308 1.4731 0.506308 3.28374C0.506308 3.28374 0.492115 15.1777 0.506308 15.3885V15.652H0.526952C0.99402 20.3311 5.05958 24 9.9909 24C15.2345 24 19.5 19.8517 19.5 14.7523C19.5 9.65295 15.2345 5.50468 9.9909 5.50468ZM9.9909 12.0847C11.5031 12.0847 12.734 13.2817 12.734 14.7523C12.734 16.2229 11.5031 17.42 9.9909 17.42C8.47873 17.42 7.24784 16.2229 7.24784 14.7523C7.24784 13.2817 8.47873 12.0847 9.9909 12.0847ZM9.9909 22.7553C5.65825 22.7553 2.09976 19.4816 1.78623 15.3458V3.28374C1.78623 2.15946 2.7294 1.24599 3.88933 1.24599C5.04926 1.24599 5.99243 2.16072 5.99243 3.28374V14.322C5.97695 14.4637 5.96791 14.6068 5.96791 14.7536C5.96791 16.9105 7.77297 18.666 9.9909 18.666C12.2088 18.666 14.0139 16.9105 14.0139 14.7536C14.0139 12.5966 12.2088 10.8412 9.9909 10.8412C8.94322 10.8412 7.98973 11.2327 7.27235 11.8726V10.1624C8.09682 9.69938 9.02966 9.4547 9.9909 9.4547C12.9959 9.4547 15.4409 11.8325 15.4409 14.7548C15.4409 17.6772 12.9959 20.055 9.9909 20.055C6.98592 20.055 4.5409 17.6772 4.5409 14.7548H4.52929V3.32012C4.52929 2.97632 4.24286 2.69776 3.88933 2.69776C3.5358 2.69776 3.24937 2.97632 3.24937 3.32012V15.1576C3.24937 15.2354 3.2313 15.3509 3.25711 15.4199C3.58225 18.7362 6.49691 21.296 9.98961 21.296C13.7004 21.296 16.7195 18.3598 16.7195 14.7511C16.7195 11.1424 13.7004 8.2062 9.98961 8.2062C9.04515 8.2062 8.12262 8.39693 7.27106 8.76332V7.19486C8.14198 6.89873 9.05418 6.74816 9.98961 6.74816C14.5274 6.74816 18.2188 10.3381 18.2188 14.7511C18.2188 19.1641 14.5274 22.754 9.98961 22.754L9.9909 22.7553Z" fill="#9CA3AF"/>
</svg>
