<svg width="147" height="51" viewBox="0 0 147 51" fill="none" xmlns="http://www.w3.org/2000/svg">
<g clip-path="url(#clip0_547_2899)">
<path d="M42.012 18.083L43.7204 21.1764C43.8035 21.3197 46.7459 19.7073 49.9136 17.8799C53.0814 19.7073 56.0238 21.3197 56.1069 21.1764L57.8153 18.083C57.8747 17.9755 52.9272 14.9418 52.417 14.6312C52.4526 13.9265 52.4764 13.0666 52.4882 12.1827C55.5255 12.1469 58.0289 12.0633 58.0289 11.92V8.37267C58.0289 8.22934 55.4899 8.14574 52.4289 8.10991C52.3696 6.95136 52.2865 6.15112 52.156 6.15112H47.7069C47.5764 6.15112 47.4933 6.9633 47.434 8.10991C44.373 8.14574 41.834 8.22934 41.834 8.37267V11.92C41.834 12.0633 44.3374 12.1469 47.3747 12.1827C47.3747 13.0666 47.4103 13.9265 47.4459 14.6312C46.9238 14.9418 41.9764 17.9755 42.0475 18.083H42.012Z" fill="black"/>
<path d="M64.6612 6.47363H60.2121C60.0223 6.47363 59.9155 8.89822 59.8799 11.7647C59.8799 12.2067 59.8799 15.4195 59.8799 15.8615C59.9155 18.7399 60.0223 21.1526 60.2121 21.1526H64.6612C64.8511 21.1526 64.9578 18.6802 64.9934 15.7778C66.2392 15.7301 67.0341 15.6704 67.0341 15.5867V12.0394C67.0341 11.9558 66.2273 11.8961 64.9934 11.8483C64.9578 8.93405 64.8511 6.47363 64.6612 6.47363Z" fill="black"/>
<path d="M53.8287 22.335C48.2524 22.335 42.8066 22.7649 42.8066 27.9724C42.8066 33.1799 48.2524 33.6099 53.8287 33.6099C59.4049 33.6099 64.8507 33.1799 64.8507 27.9724C64.8507 22.7649 59.4049 22.335 53.8287 22.335ZM53.8287 29.8357C46.4727 29.8357 46.4727 28.6652 46.4727 27.9724C46.4727 27.2797 46.4727 26.1092 53.8287 26.1092C61.1846 26.1092 61.1846 27.2797 61.1846 27.9724C61.1846 28.6652 61.1846 29.8357 53.8287 29.8357Z" fill="black"/>
<path d="M83.7274 15.9211C84.5579 15.957 85.6138 15.9809 86.7172 15.9928C86.8477 15.9928 86.9901 15.9928 87.1206 15.9928C87.1206 14.5834 87.1206 13.198 87.1444 11.8961C87.002 11.8961 86.8596 11.8961 86.7172 11.8961C85.6138 11.8961 84.5579 11.92 83.7274 11.9678C83.1105 8.89819 80.9037 7.52466 76.6088 7.52466C71.4833 7.52466 69.3003 9.44761 69.3003 13.9504C69.3003 18.4532 71.4833 20.3762 76.6088 20.3762C80.8918 20.3762 83.1105 19.0026 83.7274 15.9331V15.9211ZM72.824 13.9385C72.824 12.0155 72.824 11.1317 76.6206 11.1317C80.4172 11.1317 80.4172 12.0155 80.4172 13.9385C80.4172 15.8614 80.4172 16.7453 76.6206 16.7453C72.824 16.7453 72.824 15.8614 72.824 13.9385Z" fill="black"/>
<path d="M110.031 6.81981C109.877 6.81981 109.793 11.8959 109.77 17.6051C109.461 17.6051 109.153 17.6051 108.844 17.6051C108.548 17.6051 108.263 17.6051 107.966 17.6051C107.717 17.6051 107.48 17.6051 107.243 17.617C107.112 12.0273 106.246 7.40505 101.429 7.40505C96.0426 7.40505 95.5918 13.1978 95.5918 19.6474C95.5918 26.0971 96.0426 31.8898 101.429 31.8898C106.234 31.8898 107.112 27.2795 107.243 21.7018C107.492 21.7018 107.753 21.7018 108.014 21.7018C108.31 21.7018 108.595 21.7018 108.892 21.7018C109.188 21.7018 109.485 21.7018 109.77 21.6779C109.782 27.6976 109.865 33.2634 110.031 33.2634H113.388C113.555 33.2634 113.638 27.4467 113.649 21.2718C113.649 20.4477 113.649 19.6236 113.649 18.7994C113.649 12.6245 113.555 6.80786 113.388 6.80786H110.031V6.81981ZM101.429 28.1275C100.563 28.1275 99.2579 28.1275 99.2579 19.6594C99.2579 11.1912 100.563 11.1912 101.429 11.1912C102.295 11.1912 103.6 11.1912 103.6 19.6594C103.6 28.1275 102.295 28.1275 101.429 28.1275Z" fill="black"/>
<path d="M115.808 6.81982C115.642 6.81982 115.559 12.6365 115.547 18.8114C115.547 19.6355 115.547 20.4596 115.547 21.2838C115.547 27.4587 115.642 33.2753 115.808 33.2753H119.166C119.332 33.2753 119.415 27.4587 119.427 21.2838C119.427 20.4596 119.427 19.6355 119.427 18.8114C119.427 12.6365 119.332 6.81982 119.166 6.81982H115.808Z" fill="black"/>
<path d="M143.191 23.4816C141.744 23.4577 136.524 23.4099 135.717 23.4099C134.946 23.4099 134.163 23.4099 133.391 23.4099C132.585 23.4099 127.376 23.4457 125.917 23.4816C123.639 23.5293 122.108 23.601 122.108 23.6846V27.2319C122.108 27.3275 123.627 27.3872 125.893 27.435C125.893 27.7216 126.047 33.5741 126.237 33.5741H130.686C130.876 33.5741 131.019 27.7336 131.03 27.4947C131.802 27.4947 132.597 27.4947 133.391 27.4947C134.163 27.4947 134.946 27.4947 135.717 27.4947C136.512 27.4947 137.307 27.4947 138.078 27.4947C138.078 27.7575 138.232 33.5741 138.422 33.5741H142.871C143.061 33.5741 143.203 27.6858 143.215 27.435C145.493 27.3872 147 27.3275 147 27.2319V23.6846C147 23.5891 145.481 23.5293 143.191 23.4816Z" fill="black"/>
<path d="M135.563 12.0036C140.605 12.0036 145.363 11.8961 145.363 11.7289V8.18158C145.363 8.01437 124.019 7.99048 124.019 7.99048C123.888 7.99048 123.817 8.06214 123.782 8.15769C123.77 8.16964 123.746 9.63872 123.746 9.63872V18.7279C123.746 18.7279 123.758 20.197 123.782 20.209C123.817 20.2926 123.877 20.3762 124.019 20.3762C124.019 20.3762 145.363 20.3523 145.363 20.1851V16.6378C145.363 16.4706 140.617 16.375 135.563 16.3631C134.887 16.3631 134.211 16.3631 133.534 16.3631C131.434 16.3631 129.394 16.387 127.709 16.4228C127.709 16.16 127.709 15.1806 127.709 14.2013C127.709 13.2219 127.709 12.2425 127.709 11.9797C129.382 12.0155 131.434 12.0275 133.534 12.0394C134.211 12.0394 134.887 12.0394 135.563 12.0394V12.0036Z" fill="black"/>
<path d="M76.0391 24.4728C76.0747 25.3088 76.0865 26.2882 76.0984 27.2915C76.0984 27.4348 76.0984 27.9365 76.0984 28.45C77.4747 28.4739 79.0645 28.4978 80.7136 28.4978C81.3187 28.4978 81.9238 28.4978 82.517 28.4978C84.2018 28.4978 85.8153 28.4739 87.2035 28.45C87.2035 28.45 87.2035 28.4381 87.2035 28.4262C87.1797 27.2318 87.1679 25.8941 87.156 24.4608V24.4369C85.7679 24.413 84.1781 24.3892 82.517 24.3892C81.912 24.3892 81.3069 24.3892 80.7136 24.3892C79.0408 24.3892 77.4391 24.413 76.0509 24.4369L76.0391 24.4728Z" fill="black"/>
<path d="M96.8253 7.42904C96.9439 7.3096 95.4016 5.5897 93.6931 3.83396C93.4677 3.59508 93.2422 3.36815 93.005 3.12927C92.7795 2.8904 92.5422 2.66347 92.3168 2.43653C91.1422 1.26604 90.0982 0.274707 89.6829 0C89.2677 0.274707 88.2236 1.26604 87.049 2.43653C86.8236 2.66347 86.5982 2.8904 86.3609 3.12927C86.1355 3.36815 85.8982 3.59508 85.6728 3.83396C83.9761 5.60164 82.4219 7.3096 82.5405 7.42904L84.9846 9.93724C85.0677 10.0208 86.005 9.18478 87.1795 8.02623C87.1558 9.18478 87.1439 10.4986 87.1321 11.8841C87.1202 13.1859 87.1083 18.7876 87.1083 19.7431C87.1083 21.3555 87.1083 22.944 87.1321 24.437V24.4609C87.1439 25.8822 87.1677 27.2318 87.1795 28.4262C87.1795 28.8801 87.1914 29.3101 87.2033 29.7162C85.8626 29.6803 84.1304 29.6564 82.3507 29.6445C81.8524 29.6445 81.3422 29.6445 80.8321 29.6445C79.088 29.6445 77.3914 29.6684 76.0626 29.7162C76.0626 29.5012 76.0626 28.9637 76.0626 28.4501C76.0626 27.9365 76.0626 27.4349 76.0626 27.2916C76.0626 26.2883 76.0389 25.3089 76.0033 24.4728C75.9439 23.0276 75.849 22.0124 75.7185 22.0124H71.2694C71.0558 22.0124 70.9372 24.5803 70.9253 27.3155C70.9253 27.4946 70.9253 28.1993 70.9253 28.8801C70.9253 29.752 71.2694 30.5761 71.8744 31.1852L73.3931 32.7499C73.9982 33.371 74.8168 33.7173 75.6711 33.7173H87.4168H91.866C92.0795 33.7173 92.1982 26.9571 92.21 19.7789C92.21 18.8234 92.21 17.856 92.21 16.9005C92.21 13.6756 92.1744 10.5464 92.127 8.06206C93.3016 9.20867 94.2389 10.0567 94.3219 9.97307L96.766 7.46487L96.8253 7.42904Z" fill="#00A4B6"/>
<path d="M45.1086 48.5036C45.1679 49.2561 45.6544 49.7577 46.4255 49.7577C47.1374 49.7577 47.6476 49.268 47.6476 48.635C47.6476 47.9303 47.2086 47.584 45.951 47.0704C44.5628 46.4732 43.9103 45.6132 43.9103 44.5144C43.9103 43.2603 44.7764 42.2332 46.4137 42.2332C47.9086 42.2332 48.834 43.117 48.9764 44.5264H47.5408C47.4103 43.8456 46.995 43.4753 46.3425 43.4753C45.7493 43.4753 45.334 43.9292 45.334 44.5025C45.334 45.1116 45.7967 45.5774 47.0069 46.0671C48.4544 46.6524 49.0713 47.4645 49.0713 48.5753C49.0713 49.8891 48.1459 51.0118 46.4018 51.0118C44.8476 51.0118 43.7323 50.0324 43.6611 48.5156H45.1086V48.5036Z" fill="#748597"/>
<path d="M51.9306 50.8327V43.6425H49.8306V42.4004H55.478V43.6425H53.3662V50.8327H51.9306Z" fill="#748597"/>
<path d="M61.3511 50.8327H59.9274L59.4054 48.8262H57.1155L56.5935 50.8327H55.1816L57.4952 42.4004H59.0138L61.3393 50.8327H61.3511ZM57.4477 47.5721H59.0969L58.2783 44.3592L57.4477 47.5721Z" fill="#748597"/>
<path d="M64.5309 42.4004C66.5122 42.4004 67.4495 43.4275 67.4495 44.9325C67.4495 45.9477 66.9986 46.7599 66.097 47.1898L67.9359 50.8207H66.2868L64.7088 47.4884H63.7715V50.8207H62.3359V42.7826C62.3359 42.5198 62.4664 42.3884 62.7156 42.3884H64.519L64.5309 42.4004ZM64.3766 46.2582C65.5037 46.2582 66.0139 45.7566 66.0139 44.9325C66.0139 44.0725 65.5037 43.6186 64.3885 43.6186H63.7715V46.2582H64.3766Z" fill="#748597"/>
<path d="M70.7475 50.8327V43.6425H68.6475V42.4004H74.2949V43.6425H72.1831V50.8327H70.7475Z" fill="#748597"/>
<path d="M80.7849 42.4004V48.432C80.7849 49.8772 79.7289 50.9999 78.0798 50.9999C76.4306 50.9999 75.3984 49.8772 75.3984 48.4201V42.4004H76.834V48.3962C76.834 49.2084 77.3205 49.7458 78.0798 49.7458C78.8391 49.7458 79.3374 49.1964 79.3374 48.3962V42.4004H80.7849Z" fill="#748597"/>
<path d="M84.3562 42.4004C86.4207 42.4004 87.3817 43.4634 87.3817 45.028C87.3817 46.5927 86.4088 47.6795 84.3562 47.6795H83.6207V50.8327H82.1851V42.7945C82.1851 42.5318 82.3156 42.4004 82.5647 42.4004H84.3562ZM84.2613 46.4374C85.4122 46.4374 85.9461 45.9238 85.9461 45.0161C85.9461 44.1084 85.4122 43.6187 84.2732 43.6187H83.6207V46.4374H84.2613Z" fill="#748597"/>
<path d="M95.8882 42.4004V43.6425H92.3526V45.7805H94.6068V47.0107H92.3526V48.9934C92.3526 49.1247 92.3763 49.1845 92.4594 49.2681L92.6611 49.5069C92.7441 49.5786 92.8034 49.6025 92.8865 49.6025H95.8882V50.8327H92.4C92.0204 50.8327 91.8899 50.7849 91.6407 50.5102L91.1899 50.0205C90.9763 49.7697 90.917 49.6383 90.917 49.2203V42.8065C90.917 42.5437 91.0475 42.4123 91.2967 42.4123H95.8763L95.8882 42.4004Z" fill="#748597"/>
<path d="M102.461 47.8826C102.461 49.8772 101.536 50.8327 99.4355 50.8327H97.5491C97.2881 50.8327 97.1694 50.6894 97.1694 50.4266V42.8065C97.1694 42.5437 97.2999 42.4124 97.5491 42.4124H99.4355C101.583 42.4124 102.461 43.3559 102.461 45.3744V47.9065V47.8826ZM101.025 45.3744C101.025 44.1203 100.563 43.6426 99.3881 43.6426H98.605V49.5786H99.3881C100.563 49.5786 101.025 49.1009 101.025 47.8468V45.3744Z" fill="#748597"/>
<path d="M109.105 42.4004V48.432C109.105 49.8772 108.049 50.9999 106.4 50.9999C104.751 50.9999 103.719 49.8772 103.719 48.4201V42.4004H105.154V48.3962C105.154 49.2084 105.641 49.7458 106.4 49.7458C107.159 49.7458 107.658 49.1964 107.658 48.3962V42.4004H109.105Z" fill="#748597"/>
<path d="M114.598 44.813C114.504 43.9889 113.993 43.4634 113.246 43.4634C112.368 43.4634 111.882 44.18 111.882 45.0997V48.0617C111.882 49.0292 112.392 49.7339 113.282 49.7339C114.005 49.7339 114.515 49.1964 114.622 48.4798H116.058C115.951 50.0325 114.776 50.988 113.293 50.988C111.443 50.988 110.434 49.7936 110.434 48.0378V45.1713C110.434 43.4634 111.395 42.2332 113.258 42.2332C114.848 42.2332 115.904 43.2842 116.022 44.813H114.587H114.598Z" fill="#748597"/>
<path d="M122.82 50.8327H121.397L120.875 48.8262H118.585L118.063 50.8327H116.651L118.964 42.4004H120.483L122.809 50.8327H122.82ZM118.917 47.5721H120.566L119.747 44.3592L118.917 47.5721Z" fill="#748597"/>
<path d="M124.647 50.8327V43.6425H122.547V42.4004H128.195V43.6425H126.083V50.8327H124.647Z" fill="#748597"/>
<path d="M129.132 42.4004H133.617V43.6425H132.087V49.6025H133.724V50.8327H129.002V49.6025H130.639V43.6425H129.121V42.4004H129.132Z" fill="#748597"/>
<path d="M140.285 47.9304C140.285 49.8175 139.241 50.9999 137.354 50.9999C135.468 50.9999 134.436 49.8294 134.436 47.9184V45.3147C134.436 43.4156 135.48 42.2451 137.354 42.2451C139.229 42.2451 140.285 43.4156 140.285 45.3147V47.9304ZM138.849 45.3027C138.849 44.192 138.268 43.4634 137.354 43.4634C136.441 43.4634 135.883 44.192 135.883 45.3027V47.9423C135.883 49.0531 136.464 49.7578 137.354 49.7578C138.244 49.7578 138.849 49.0531 138.849 47.9423V45.3027Z" fill="#748597"/>
<path d="M147 50.4147C147 50.6894 146.87 50.8207 146.62 50.8207H145.363L142.978 44.9444V50.8207H141.59V42.7826C141.59 42.5198 141.72 42.3884 141.97 42.3884H143.263L145.612 48.2887V42.3884H147V50.4147Z" fill="#748597"/>
<path d="M5.35067 43.7023H19.0066L19.0185 41.3733H3.03711L5.35067 43.7023Z" fill="#00A4B6"/>
<path d="M27.9169 43.6904L27.8932 40.4895V10.8569L25.6152 8.56372V40.4775C25.6152 40.4775 25.6152 40.4895 25.6152 40.5014V41.3733V43.7024H27.9288L27.9169 43.6904Z" fill="#00A4B6"/>
<path d="M29.7085 44.5862L29.6729 10.4867C29.6729 10.2478 29.578 10.0209 29.4119 9.85364L25.3542 5.76887C25.2831 5.6972 25.1881 5.63749 25.1051 5.60165C25.0814 5.58971 25.0458 5.57777 25.0102 5.56582C24.939 5.54193 24.8678 5.52999 24.7847 5.51805C24.761 5.51805 24.7492 5.5061 24.7254 5.5061H0.889831C0.40339 5.5061 0 5.91219 0 6.40189C0 6.89158 0.40339 7.29767 0.889831 7.29767H23.8356V39.5817H0.889831C0.783051 39.5817 0.676271 39.6056 0.581356 39.6415C0.557627 39.6415 0.522034 39.6654 0.498305 39.6773C0.427119 39.7131 0.367797 39.749 0.308475 39.8087C0.284746 39.8326 0.261017 39.8445 0.237288 39.8684C0.177966 39.9401 0.118644 40.0237 0.0711864 40.1073C0.0711864 40.1073 0.0711864 40.1192 0.059322 40.1312C0.0237288 40.2267 0 40.3342 0 40.4417C0 40.4417 0 40.4656 0 40.4775C0 40.5014 0 40.5134 0 40.5372C0 40.6209 0.0237288 40.6925 0.0474576 40.7761C0.0474576 40.8 0.059322 40.8358 0.0830508 40.8597C0.130508 40.9553 0.177966 41.0389 0.261017 41.1225L4.35424 45.2431C4.52034 45.4103 4.74576 45.5059 4.98305 45.5059H19.0186V46.4255C19.0186 46.76 19.2085 47.0705 19.5051 47.2258C19.8017 47.381 20.1695 47.3452 20.4424 47.1422L22.3288 45.7328L24.2034 47.1422C24.3576 47.2616 24.5475 47.3213 24.7373 47.3213C24.8678 47.3213 25.0102 47.2855 25.1288 47.2258C25.4254 47.0705 25.6153 46.76 25.6271 46.4255V45.5059H28.8424C28.8424 45.5059 28.9492 45.482 29.0085 45.47C29.0678 45.4581 29.1271 45.4581 29.1864 45.4342C29.2458 45.4103 29.2814 45.3745 29.3288 45.3387C29.3763 45.3028 29.4237 45.2789 29.4712 45.2431C29.5186 45.1953 29.5424 45.1356 29.578 45.0878C29.6017 45.0401 29.6373 45.0042 29.661 44.9565C29.6847 44.8967 29.6847 44.837 29.6966 44.7654C29.6966 44.7176 29.7322 44.6698 29.7322 44.6101L29.7085 44.5862ZM23.8356 44.622L23.8 44.5981L22.8508 43.8815C22.6966 43.7621 22.5068 43.7024 22.3169 43.7024C22.1271 43.7024 21.9492 43.7621 21.7831 43.8815L20.822 44.5981L20.7864 44.622V43.7024V41.3733H23.8237V43.7024V44.5981V44.622H23.8356ZM19.0186 41.3733V43.7024H5.35085L3.03729 41.3733H19.0186ZM25.6153 41.3733V40.5014C25.6153 40.5014 25.6153 40.4895 25.6153 40.4775V8.56371L27.8932 10.8569V40.4895L27.917 43.6904H25.6034V41.3614L25.6153 41.3733Z" fill="black"/>
<path d="M20.2762 17.3663C20.3474 17.2827 19.3508 16.1839 18.2592 15.0373C18.1169 14.882 17.9626 14.7387 17.8202 14.5834C17.666 14.4282 17.5236 14.2848 17.3813 14.1415C16.6219 13.3771 15.9457 12.7441 15.6847 12.5649C15.4236 12.7441 14.7474 13.3771 13.988 14.1415C13.8457 14.2848 13.6914 14.4401 13.5491 14.5834C13.4067 14.7387 13.2524 14.882 13.1101 15.0373C12.0067 16.172 11.0101 17.2827 11.0931 17.3663L12.6711 18.9907C12.6711 18.9907 13.3355 18.501 14.0948 17.7605C14.083 18.5129 14.0711 19.361 14.0592 20.2567C14.0592 21.1048 14.0355 24.7118 14.0355 25.3329C14.0355 26.372 14.0355 27.3991 14.0474 28.3666C14.0474 29.2982 14.0711 30.1701 14.083 30.9345C14.083 31.2331 14.083 31.5078 14.0948 31.7706C13.2287 31.7467 12.1135 31.7347 10.9508 31.7228C10.6304 31.7228 10.2982 31.7228 9.96601 31.7228C8.83889 31.7228 7.7355 31.7347 6.88126 31.7706C6.88126 31.6392 6.88126 31.2809 6.88126 30.9464C6.88126 30.612 6.88126 30.2895 6.88126 30.194C6.88126 29.549 6.8694 28.916 6.84567 28.3666C6.81008 27.435 6.75075 26.7781 6.65584 26.7781H3.77279C3.63041 26.7781 3.55923 28.4382 3.54736 30.2059C3.54736 30.3254 3.54736 30.7792 3.54736 31.2092C3.54736 31.7706 3.77279 32.308 4.15245 32.7022L5.13719 33.7174C5.52872 34.1235 6.06262 34.3385 6.60838 34.3385H14.2016H17.0847C17.227 34.3385 17.2982 29.967 17.3101 25.3329C17.3101 24.7118 17.3101 24.0907 17.3101 23.4696C17.3101 21.3914 17.2863 19.361 17.2626 17.7605C18.0219 18.501 18.627 19.0504 18.6863 18.9907L20.2643 17.3663H20.2762Z" fill="#00A4B6"/>
</g>
<defs>
<clipPath id="clip0_547_2899">
<rect width="147" height="51" fill="white"/>
</clipPath>
</defs>
</svg>
